<svg width="32" height="32" viewBox="0 0 32 32" xmlns="http://www.w3.org/2000/svg">
  <!-- Background circle with gradient -->
  <defs>
    <linearGradient id="bgGradient" x1="0%" y1="0%" x2="100%" y2="100%">
      <stop offset="0%" style="stop-color:#8b5cf6;stop-opacity:1" />
      <stop offset="100%" style="stop-color:#7c3aed;stop-opacity:1" />
    </linearGradient>
    <linearGradient id="letterGradient" x1="0%" y1="0%" x2="100%" y2="100%">
      <stop offset="0%" style="stop-color:#ffffff;stop-opacity:1" />
      <stop offset="100%" style="stop-color:#e9d5ff;stop-opacity:1" />
    </linearGradient>
  </defs>
  
  <!-- Main circle background -->
  <circle cx="16" cy="16" r="15" fill="url(#bgGradient)"/>
  
  <!-- BB Letters -->
  <g fill="none" stroke="url(#letterGradient)" stroke-width="1.5" stroke-linecap="round" stroke-linejoin="round">
    <!-- First B - mirrored for brain-like appearance -->
    <path d="M 8 10 L 8 22 L 11 22 Q 14 22 14 19 Q 14 16 11 16 L 8 16 M 8 16 L 11 16 Q 14 16 14 13 Q 14 10 11 10 L 8 10" transform="scale(-1, 1) translate(-32, 0)"/>
    <!-- Second B -->
    <path d="M 18 10 L 18 22 L 21 22 Q 24 22 24 19 Q 24 16 21 16 L 18 16 M 18 16 L 21 16 Q 24 16 24 13 Q 24 10 21 10 L 18 10"/>
  </g>
</svg>